<?xml version="1.0" standalone="no"?>
<!DOCTYPE svg PUBLIC "-//W3C//DTD SVG 20010904//EN"
 "http://www.w3.org/TR/2001/REC-SVG-20010904/DTD/svg10.dtd">
<svg version="1.0" xmlns="http://www.w3.org/2000/svg"
 width="70.000000pt" height="70.000000pt" viewBox="0 0 70.000000 70.000000"
 preserveAspectRatio="xMidYMid meet">
<metadata>
Created by potrace 1.11, written by Peter Selinger 2001-2013
</metadata>
<g transform="translate(0.000000,70.000000) scale(0.100000,-0.100000)"
fill="#000000" stroke="none">
<path d="M36 617 c-3 -34 -11 -107 -17 -162 -23 -209 -23 -201 6 -260 31 -65
68 -98 155 -139 60 -29 73 -31 170 -31 97 0 110 2 170 31 86 41 123 74 154
136 30 59 34 129 12 182 -8 19 -17 69 -20 112 -4 44 -9 105 -12 136 l-6 58
-82 -65 c-80 -62 -83 -64 -122 -55 -51 12 -138 12 -192 0 l-44 -10 -83 65 -83
65 -6 -63z m199 -252 c32 -31 32 -59 0 -90 -31 -32 -59 -32 -90 0 -14 13 -25
34 -25 45 0 27 43 70 70 70 12 0 32 -11 45 -25z m320 0 c14 -13 25 -33 25 -45
0 -27 -43 -70 -70 -70 -27 0 -70 43 -70 70 0 12 11 32 25 45 13 14 34 25 45
25 12 0 32 -11 45 -25z"/>
</g>
</svg>
